<mxfile host="app.diagrams.net" agent="Mozilla/5.0 (Macintosh; Intel Mac OS X 10_15_7) AppleWebKit/605.1.15 (KHTML, like Gecko) Version/18.6 Safari/605.1.15" version="28.2.3">
  <diagram id="Ht1M8jgEwFfnCIfOTk4-" name="Page-1">
    <mxGraphModel dx="2155" dy="2063" grid="1" gridSize="10" guides="1" tooltips="1" connect="1" arrows="1" fold="1" page="1" pageScale="1" pageWidth="1169" pageHeight="827" math="0" shadow="0">
      <root>
        <mxCell id="0" />
        <mxCell id="1" parent="0" />
        <mxCell id="TiNF2-5zbhQ4cIO_slI2-167" value="AWS Cloud" style="points=[[0,0],[0.25,0],[0.5,0],[0.75,0],[1,0],[1,0.25],[1,0.5],[1,0.75],[1,1],[0.75,1],[0.5,1],[0.25,1],[0,1],[0,0.75],[0,0.5],[0,0.25]];outlineConnect=0;gradientColor=none;html=1;whiteSpace=wrap;fontSize=12;fontStyle=0;shape=mxgraph.aws4.group;grIcon=mxgraph.aws4.group_aws_cloud_alt;strokeColor=#232F3E;fillColor=none;verticalAlign=top;align=left;spacingLeft=30;fontColor=#232F3E;dashed=0;labelBackgroundColor=#ffffff;container=1;pointerEvents=0;collapsible=0;recursiveResize=0;movable=1;resizable=1;rotatable=1;deletable=1;editable=1;locked=0;connectable=1;" parent="1" vertex="1">
          <mxGeometry x="310" y="90" width="1330" height="1440" as="geometry" />
        </mxCell>
        <mxCell id="TiNF2-5zbhQ4cIO_slI2-177" value="" style="edgeStyle=orthogonalEdgeStyle;rounded=0;orthogonalLoop=1;jettySize=auto;html=1;" parent="TiNF2-5zbhQ4cIO_slI2-167" source="TiNF2-5zbhQ4cIO_slI2-178" target="TiNF2-5zbhQ4cIO_slI2-180" edge="1">
          <mxGeometry relative="1" as="geometry" />
        </mxCell>
        <mxCell id="TiNF2-5zbhQ4cIO_slI2-178" value="" style="sketch=0;points=[[0,0,0],[0.25,0,0],[0.5,0,0],[0.75,0,0],[1,0,0],[0,1,0],[0.25,1,0],[0.5,1,0],[0.75,1,0],[1,1,0],[0,0.25,0],[0,0.5,0],[0,0.75,0],[1,0.25,0],[1,0.5,0],[1,0.75,0]];outlineConnect=0;fontColor=#232F3E;fillColor=#8C4FFF;strokeColor=#ffffff;dashed=0;verticalLabelPosition=bottom;verticalAlign=top;align=center;html=1;fontSize=12;fontStyle=0;aspect=fixed;shape=mxgraph.aws4.resourceIcon;resIcon=mxgraph.aws4.cloudfront;" parent="TiNF2-5zbhQ4cIO_slI2-167" vertex="1">
          <mxGeometry x="480" y="100" width="80" height="80" as="geometry" />
        </mxCell>
        <mxCell id="TiNF2-5zbhQ4cIO_slI2-179" style="edgeStyle=orthogonalEdgeStyle;rounded=0;orthogonalLoop=1;jettySize=auto;html=1;entryX=0.475;entryY=-0.013;entryDx=0;entryDy=0;entryPerimeter=0;" parent="TiNF2-5zbhQ4cIO_slI2-167" source="TiNF2-5zbhQ4cIO_slI2-180" target="TiNF2-5zbhQ4cIO_slI2-186" edge="1">
          <mxGeometry relative="1" as="geometry">
            <mxPoint x="520" y="400" as="targetPoint" />
            <Array as="points" />
          </mxGeometry>
        </mxCell>
        <mxCell id="TiNF2-5zbhQ4cIO_slI2-180" value="" style="sketch=0;points=[[0,0,0],[0.25,0,0],[0.5,0,0],[0.75,0,0],[1,0,0],[0,1,0],[0.25,1,0],[0.5,1,0],[0.75,1,0],[1,1,0],[0,0.25,0],[0,0.5,0],[0,0.75,0],[1,0.25,0],[1,0.5,0],[1,0.75,0]];outlineConnect=0;fontColor=#232F3E;fillColor=#DD344C;strokeColor=#ffffff;dashed=0;verticalLabelPosition=bottom;verticalAlign=top;align=center;html=1;fontSize=12;fontStyle=0;aspect=fixed;shape=mxgraph.aws4.resourceIcon;resIcon=mxgraph.aws4.waf;" parent="TiNF2-5zbhQ4cIO_slI2-167" vertex="1">
          <mxGeometry x="480" y="220" width="80" height="80" as="geometry" />
        </mxCell>
        <mxCell id="TiNF2-5zbhQ4cIO_slI2-181" value="Route 53" style="text;html=1;align=center;verticalAlign=middle;whiteSpace=wrap;rounded=0;" parent="TiNF2-5zbhQ4cIO_slI2-167" vertex="1">
          <mxGeometry x="558" width="100" height="30" as="geometry" />
        </mxCell>
        <mxCell id="TiNF2-5zbhQ4cIO_slI2-182" value="" style="sketch=0;points=[[0,0,0],[0.25,0,0],[0.5,0,0],[0.75,0,0],[1,0,0],[0,1,0],[0.25,1,0],[0.5,1,0],[0.75,1,0],[1,1,0],[0,0.25,0],[0,0.5,0],[0,0.75,0],[1,0.25,0],[1,0.5,0],[1,0.75,0]];outlineConnect=0;fontColor=#232F3E;fillColor=#8C4FFF;strokeColor=#ffffff;dashed=0;verticalLabelPosition=bottom;verticalAlign=top;align=center;html=1;fontSize=12;fontStyle=0;aspect=fixed;shape=mxgraph.aws4.resourceIcon;resIcon=mxgraph.aws4.route_53;" parent="TiNF2-5zbhQ4cIO_slI2-167" vertex="1">
          <mxGeometry x="480" y="-30" width="80" height="80" as="geometry" />
        </mxCell>
        <mxCell id="TiNF2-5zbhQ4cIO_slI2-183" value="" style="edgeStyle=orthogonalEdgeStyle;rounded=0;orthogonalLoop=1;jettySize=auto;html=1;" parent="TiNF2-5zbhQ4cIO_slI2-167" source="TiNF2-5zbhQ4cIO_slI2-182" target="TiNF2-5zbhQ4cIO_slI2-178" edge="1">
          <mxGeometry relative="1" as="geometry" />
        </mxCell>
        <mxCell id="TiNF2-5zbhQ4cIO_slI2-221" style="edgeStyle=orthogonalEdgeStyle;rounded=0;orthogonalLoop=1;jettySize=auto;html=1;" parent="TiNF2-5zbhQ4cIO_slI2-167" source="TiNF2-5zbhQ4cIO_slI2-222" target="TiNF2-5zbhQ4cIO_slI2-223" edge="1">
          <mxGeometry relative="1" as="geometry" />
        </mxCell>
        <mxCell id="TiNF2-5zbhQ4cIO_slI2-222" value="" style="points=[];aspect=fixed;html=1;align=center;shadow=0;dashed=0;fillColor=#FF6A00;strokeColor=none;shape=mxgraph.alibaba_cloud.dbs_database_backup;" parent="TiNF2-5zbhQ4cIO_slI2-167" vertex="1">
          <mxGeometry x="479.99999999999994" y="1161" width="68.39999999999999" height="63.9" as="geometry" />
        </mxCell>
        <mxCell id="TiNF2-5zbhQ4cIO_slI2-223" value="" style="sketch=0;outlineConnect=0;fontColor=#232F3E;gradientColor=none;fillColor=#7AA116;strokeColor=none;dashed=0;verticalLabelPosition=bottom;verticalAlign=top;align=center;html=1;fontSize=12;fontStyle=0;aspect=fixed;pointerEvents=1;shape=mxgraph.aws4.bucket_with_objects;" parent="TiNF2-5zbhQ4cIO_slI2-167" vertex="1">
          <mxGeometry x="481.09000000000003" y="1281" width="67.31" height="70" as="geometry" />
        </mxCell>
        <mxCell id="TiNF2-5zbhQ4cIO_slI2-225" style="edgeStyle=orthogonalEdgeStyle;rounded=0;orthogonalLoop=1;jettySize=auto;html=1;" parent="TiNF2-5zbhQ4cIO_slI2-167" source="TiNF2-5zbhQ4cIO_slI2-226" target="TiNF2-5zbhQ4cIO_slI2-229" edge="1">
          <mxGeometry relative="1" as="geometry" />
        </mxCell>
        <mxCell id="TiNF2-5zbhQ4cIO_slI2-226" value="" style="sketch=0;points=[[0,0,0],[0.25,0,0],[0.5,0,0],[0.75,0,0],[1,0,0],[0,1,0],[0.25,1,0],[0.5,1,0],[0.75,1,0],[1,1,0],[0,0.25,0],[0,0.5,0],[0,0.75,0],[1,0.25,0],[1,0.5,0],[1,0.75,0]];points=[[0,0,0],[0.25,0,0],[0.5,0,0],[0.75,0,0],[1,0,0],[0,1,0],[0.25,1,0],[0.5,1,0],[0.75,1,0],[1,1,0],[0,0.25,0],[0,0.5,0],[0,0.75,0],[1,0.25,0],[1,0.5,0],[1,0.75,0]];outlineConnect=0;fontColor=#232F3E;fillColor=#E7157B;strokeColor=#ffffff;dashed=0;verticalLabelPosition=bottom;verticalAlign=top;align=center;html=1;fontSize=12;fontStyle=0;aspect=fixed;shape=mxgraph.aws4.resourceIcon;resIcon=mxgraph.aws4.cloudwatch_2;" parent="TiNF2-5zbhQ4cIO_slI2-167" vertex="1">
          <mxGeometry x="1129" y="585.5" width="69" height="69" as="geometry" />
        </mxCell>
        <mxCell id="TiNF2-5zbhQ4cIO_slI2-227" style="edgeStyle=orthogonalEdgeStyle;rounded=0;orthogonalLoop=1;jettySize=auto;html=1;entryX=0;entryY=0.5;entryDx=0;entryDy=0;entryPerimeter=0;" parent="TiNF2-5zbhQ4cIO_slI2-167" target="TiNF2-5zbhQ4cIO_slI2-226" edge="1">
          <mxGeometry relative="1" as="geometry">
            <mxPoint x="980" y="620" as="sourcePoint" />
          </mxGeometry>
        </mxCell>
        <mxCell id="TiNF2-5zbhQ4cIO_slI2-228" style="edgeStyle=orthogonalEdgeStyle;rounded=0;orthogonalLoop=1;jettySize=auto;html=1;" parent="TiNF2-5zbhQ4cIO_slI2-167" source="TiNF2-5zbhQ4cIO_slI2-229" target="TiNF2-5zbhQ4cIO_slI2-230" edge="1">
          <mxGeometry relative="1" as="geometry" />
        </mxCell>
        <mxCell id="TiNF2-5zbhQ4cIO_slI2-229" value="" style="sketch=0;outlineConnect=0;fontColor=#232F3E;gradientColor=none;fillColor=#E7157B;strokeColor=none;dashed=0;verticalLabelPosition=bottom;verticalAlign=top;align=center;html=1;fontSize=12;fontStyle=0;aspect=fixed;pointerEvents=1;shape=mxgraph.aws4.alarm;" parent="TiNF2-5zbhQ4cIO_slI2-167" vertex="1">
          <mxGeometry x="1129" y="710" width="70" height="70" as="geometry" />
        </mxCell>
        <mxCell id="TiNF2-5zbhQ4cIO_slI2-230" value="" style="sketch=0;points=[[0,0,0],[0.25,0,0],[0.5,0,0],[0.75,0,0],[1,0,0],[0,1,0],[0.25,1,0],[0.5,1,0],[0.75,1,0],[1,1,0],[0,0.25,0],[0,0.5,0],[0,0.75,0],[1,0.25,0],[1,0.5,0],[1,0.75,0]];outlineConnect=0;fontColor=#232F3E;fillColor=#E7157B;strokeColor=#ffffff;dashed=0;verticalLabelPosition=bottom;verticalAlign=top;align=center;html=1;fontSize=12;fontStyle=0;aspect=fixed;shape=mxgraph.aws4.resourceIcon;resIcon=mxgraph.aws4.sns;" parent="TiNF2-5zbhQ4cIO_slI2-167" vertex="1">
          <mxGeometry x="1129" y="850" width="70" height="70" as="geometry" />
        </mxCell>
        <mxCell id="TiNF2-5zbhQ4cIO_slI2-231" style="edgeStyle=orthogonalEdgeStyle;rounded=0;orthogonalLoop=1;jettySize=auto;html=1;exitX=0.511;exitY=0.871;exitDx=0;exitDy=0;exitPerimeter=0;" parent="TiNF2-5zbhQ4cIO_slI2-167" source="TiNF2-5zbhQ4cIO_slI2-186" edge="1">
          <mxGeometry relative="1" as="geometry">
            <mxPoint x="521.9000000000001" y="589" as="targetPoint" />
          </mxGeometry>
        </mxCell>
        <mxCell id="TiNF2-5zbhQ4cIO_slI2-235" value="CloudFront" style="text;html=1;align=center;verticalAlign=middle;whiteSpace=wrap;rounded=0;" parent="TiNF2-5zbhQ4cIO_slI2-167" vertex="1">
          <mxGeometry x="578" y="130" width="60" height="30" as="geometry" />
        </mxCell>
        <mxCell id="TiNF2-5zbhQ4cIO_slI2-236" value="WAF" style="text;html=1;align=center;verticalAlign=middle;whiteSpace=wrap;rounded=0;" parent="TiNF2-5zbhQ4cIO_slI2-167" vertex="1">
          <mxGeometry x="570" y="245" width="60" height="30" as="geometry" />
        </mxCell>
        <mxCell id="TiNF2-5zbhQ4cIO_slI2-237" value="DBS Backup" style="text;html=1;align=center;verticalAlign=middle;whiteSpace=wrap;rounded=0;" parent="TiNF2-5zbhQ4cIO_slI2-167" vertex="1">
          <mxGeometry x="524.2" y="1210" width="100" height="30" as="geometry" />
        </mxCell>
        <mxCell id="TiNF2-5zbhQ4cIO_slI2-238" value="S3 Storing Backup" style="text;html=1;align=center;verticalAlign=middle;whiteSpace=wrap;rounded=0;" parent="TiNF2-5zbhQ4cIO_slI2-167" vertex="1">
          <mxGeometry x="524.2" y="1340" width="100" height="30" as="geometry" />
        </mxCell>
        <mxCell id="TiNF2-5zbhQ4cIO_slI2-239" value="CloudWatch" style="text;html=1;align=center;verticalAlign=middle;whiteSpace=wrap;rounded=0;" parent="TiNF2-5zbhQ4cIO_slI2-167" vertex="1">
          <mxGeometry x="1207" y="650" width="60" height="30" as="geometry" />
        </mxCell>
        <mxCell id="TiNF2-5zbhQ4cIO_slI2-240" value="CloudWatch&lt;div&gt;Alarm&lt;/div&gt;" style="text;html=1;align=center;verticalAlign=middle;whiteSpace=wrap;rounded=0;" parent="TiNF2-5zbhQ4cIO_slI2-167" vertex="1">
          <mxGeometry x="1207" y="760" width="60" height="30" as="geometry" />
        </mxCell>
        <mxCell id="TiNF2-5zbhQ4cIO_slI2-241" value="SNS to developer" style="text;html=1;align=center;verticalAlign=middle;whiteSpace=wrap;rounded=0;" parent="TiNF2-5zbhQ4cIO_slI2-167" vertex="1">
          <mxGeometry x="1207" y="890" width="60" height="30" as="geometry" />
        </mxCell>
        <mxCell id="TiNF2-5zbhQ4cIO_slI2-186" value="" style="points=[];aspect=fixed;html=1;align=center;shadow=0;dashed=0;fillColor=#FF6A00;strokeColor=none;shape=mxgraph.alibaba_cloud.alb_application_load_balancer_01;" parent="TiNF2-5zbhQ4cIO_slI2-167" vertex="1">
          <mxGeometry x="480" y="410" width="82.54" height="70" as="geometry" />
        </mxCell>
        <mxCell id="TiNF2-5zbhQ4cIO_slI2-257" style="edgeStyle=orthogonalEdgeStyle;rounded=0;orthogonalLoop=1;jettySize=auto;html=1;" parent="TiNF2-5zbhQ4cIO_slI2-167" source="TiNF2-5zbhQ4cIO_slI2-248" target="TiNF2-5zbhQ4cIO_slI2-250" edge="1">
          <mxGeometry relative="1" as="geometry" />
        </mxCell>
        <mxCell id="TiNF2-5zbhQ4cIO_slI2-248" value="" style="sketch=0;points=[[0,0,0],[0.25,0,0],[0.5,0,0],[0.75,0,0],[1,0,0],[0,1,0],[0.25,1,0],[0.5,1,0],[0.75,1,0],[1,1,0],[0,0.25,0],[0,0.5,0],[0,0.75,0],[1,0.25,0],[1,0.5,0],[1,0.75,0]];outlineConnect=0;fontColor=#232F3E;fillColor=#ED7100;strokeColor=#ffffff;dashed=0;verticalLabelPosition=bottom;verticalAlign=top;align=center;html=1;fontSize=12;fontStyle=0;aspect=fixed;shape=mxgraph.aws4.resourceIcon;resIcon=mxgraph.aws4.fargate;" parent="TiNF2-5zbhQ4cIO_slI2-167" vertex="1">
          <mxGeometry x="480" y="590" width="78" height="78" as="geometry" />
        </mxCell>
        <mxCell id="TiNF2-5zbhQ4cIO_slI2-249" value="" style="fillColor=none;strokeColor=#3333FF;dashed=1;verticalAlign=top;fontStyle=0;fontColor=#5A6C86;whiteSpace=wrap;html=1;" parent="TiNF2-5zbhQ4cIO_slI2-167" vertex="1">
          <mxGeometry x="360.27" y="540" width="322" height="560" as="geometry" />
        </mxCell>
        <mxCell id="TiNF2-5zbhQ4cIO_slI2-259" style="edgeStyle=orthogonalEdgeStyle;rounded=0;orthogonalLoop=1;jettySize=auto;html=1;" parent="TiNF2-5zbhQ4cIO_slI2-167" source="TiNF2-5zbhQ4cIO_slI2-250" target="TiNF2-5zbhQ4cIO_slI2-251" edge="1">
          <mxGeometry relative="1" as="geometry" />
        </mxCell>
        <mxCell id="TiNF2-5zbhQ4cIO_slI2-250" value="" style="sketch=0;points=[[0,0,0],[0.25,0,0],[0.5,0,0],[0.75,0,0],[1,0,0],[0,1,0],[0.25,1,0],[0.5,1,0],[0.75,1,0],[1,1,0],[0,0.25,0],[0,0.5,0],[0,0.75,0],[1,0.25,0],[1,0.5,0],[1,0.75,0]];outlineConnect=0;fontColor=#232F3E;fillColor=#C925D1;strokeColor=#ffffff;dashed=0;verticalLabelPosition=bottom;verticalAlign=top;align=center;html=1;fontSize=12;fontStyle=0;aspect=fixed;shape=mxgraph.aws4.resourceIcon;resIcon=mxgraph.aws4.elasticache;" parent="TiNF2-5zbhQ4cIO_slI2-167" vertex="1">
          <mxGeometry x="480" y="770" width="78" height="78" as="geometry" />
        </mxCell>
        <mxCell id="U_ha7sHfOQzhkPzP0HIx-2" style="edgeStyle=orthogonalEdgeStyle;rounded=0;orthogonalLoop=1;jettySize=auto;html=1;entryX=0.5;entryY=0;entryDx=0;entryDy=0;" edge="1" parent="TiNF2-5zbhQ4cIO_slI2-167" source="TiNF2-5zbhQ4cIO_slI2-251" target="TiNF2-5zbhQ4cIO_slI2-343">
          <mxGeometry relative="1" as="geometry" />
        </mxCell>
        <mxCell id="TiNF2-5zbhQ4cIO_slI2-251" value="" style="sketch=0;outlineConnect=0;fontColor=#232F3E;gradientColor=none;fillColor=#C925D1;strokeColor=none;dashed=0;verticalLabelPosition=bottom;verticalAlign=top;align=center;html=1;fontSize=12;fontStyle=0;aspect=fixed;pointerEvents=1;shape=mxgraph.aws4.aurora_instance;" parent="TiNF2-5zbhQ4cIO_slI2-167" vertex="1">
          <mxGeometry x="480" y="930" width="78" height="78" as="geometry" />
        </mxCell>
        <mxCell id="TiNF2-5zbhQ4cIO_slI2-255" value="" style="fillColor=none;strokeColor=#3333FF;dashed=1;verticalAlign=top;fontStyle=0;fontColor=#5A6C86;whiteSpace=wrap;html=1;" parent="TiNF2-5zbhQ4cIO_slI2-167" vertex="1">
          <mxGeometry x="20" y="540" width="322" height="560" as="geometry" />
        </mxCell>
        <mxCell id="TiNF2-5zbhQ4cIO_slI2-256" value="" style="fillColor=none;strokeColor=#3333FF;dashed=1;verticalAlign=top;fontStyle=0;fontColor=#5A6C86;whiteSpace=wrap;html=1;" parent="TiNF2-5zbhQ4cIO_slI2-167" vertex="1">
          <mxGeometry x="700" y="540" width="322" height="560" as="geometry" />
        </mxCell>
        <mxCell id="TiNF2-5zbhQ4cIO_slI2-260" style="edgeStyle=orthogonalEdgeStyle;rounded=0;orthogonalLoop=1;jettySize=auto;html=1;entryX=0.577;entryY=-0.044;entryDx=0;entryDy=0;entryPerimeter=0;" parent="TiNF2-5zbhQ4cIO_slI2-167" source="TiNF2-5zbhQ4cIO_slI2-343" target="TiNF2-5zbhQ4cIO_slI2-222" edge="1">
          <mxGeometry relative="1" as="geometry" />
        </mxCell>
        <mxCell id="TiNF2-5zbhQ4cIO_slI2-336" style="edgeStyle=orthogonalEdgeStyle;rounded=0;orthogonalLoop=1;jettySize=auto;html=1;" parent="TiNF2-5zbhQ4cIO_slI2-167" source="TiNF2-5zbhQ4cIO_slI2-296" target="TiNF2-5zbhQ4cIO_slI2-298" edge="1">
          <mxGeometry relative="1" as="geometry" />
        </mxCell>
        <mxCell id="TiNF2-5zbhQ4cIO_slI2-297" value="" style="sketch=0;points=[[0,0,0],[0.25,0,0],[0.5,0,0],[0.75,0,0],[1,0,0],[0,1,0],[0.25,1,0],[0.5,1,0],[0.75,1,0],[1,1,0],[0,0.25,0],[0,0.5,0],[0,0.75,0],[1,0.25,0],[1,0.5,0],[1,0.75,0]];outlineConnect=0;fontColor=#232F3E;fillColor=#ED7100;strokeColor=#ffffff;dashed=0;verticalLabelPosition=bottom;verticalAlign=top;align=center;html=1;fontSize=12;fontStyle=0;aspect=fixed;shape=mxgraph.aws4.resourceIcon;resIcon=mxgraph.aws4.fargate;" parent="TiNF2-5zbhQ4cIO_slI2-167" vertex="1">
          <mxGeometry x="822" y="585.5" width="78" height="78" as="geometry" />
        </mxCell>
        <mxCell id="TiNF2-5zbhQ4cIO_slI2-337" style="edgeStyle=orthogonalEdgeStyle;rounded=0;orthogonalLoop=1;jettySize=auto;html=1;" parent="TiNF2-5zbhQ4cIO_slI2-167" source="TiNF2-5zbhQ4cIO_slI2-298" target="TiNF2-5zbhQ4cIO_slI2-303" edge="1">
          <mxGeometry relative="1" as="geometry" />
        </mxCell>
        <mxCell id="TiNF2-5zbhQ4cIO_slI2-298" value="" style="sketch=0;points=[[0,0,0],[0.25,0,0],[0.5,0,0],[0.75,0,0],[1,0,0],[0,1,0],[0.25,1,0],[0.5,1,0],[0.75,1,0],[1,1,0],[0,0.25,0],[0,0.5,0],[0,0.75,0],[1,0.25,0],[1,0.5,0],[1,0.75,0]];outlineConnect=0;fontColor=#232F3E;fillColor=#C925D1;strokeColor=#ffffff;dashed=0;verticalLabelPosition=bottom;verticalAlign=top;align=center;html=1;fontSize=12;fontStyle=0;aspect=fixed;shape=mxgraph.aws4.resourceIcon;resIcon=mxgraph.aws4.elasticache;" parent="TiNF2-5zbhQ4cIO_slI2-167" vertex="1">
          <mxGeometry x="142" y="770" width="78" height="78" as="geometry" />
        </mxCell>
        <mxCell id="TiNF2-5zbhQ4cIO_slI2-299" value="" style="endArrow=none;dashed=1;html=1;dashPattern=1 3;strokeWidth=2;rounded=0;entryX=0;entryY=0.5;entryDx=0;entryDy=0;entryPerimeter=0;" parent="TiNF2-5zbhQ4cIO_slI2-167" source="TiNF2-5zbhQ4cIO_slI2-298" target="TiNF2-5zbhQ4cIO_slI2-250" edge="1">
          <mxGeometry width="50" height="50" relative="1" as="geometry">
            <mxPoint x="680" y="840" as="sourcePoint" />
            <mxPoint x="730" y="790" as="targetPoint" />
          </mxGeometry>
        </mxCell>
        <mxCell id="TiNF2-5zbhQ4cIO_slI2-301" value="" style="endArrow=none;dashed=1;html=1;dashPattern=1 3;strokeWidth=2;rounded=0;entryX=0;entryY=0.5;entryDx=0;entryDy=0;entryPerimeter=0;" parent="TiNF2-5zbhQ4cIO_slI2-167" edge="1">
          <mxGeometry width="50" height="50" relative="1" as="geometry">
            <mxPoint x="558" y="808.58" as="sourcePoint" />
            <mxPoint x="818" y="808.58" as="targetPoint" />
          </mxGeometry>
        </mxCell>
        <mxCell id="TiNF2-5zbhQ4cIO_slI2-338" style="edgeStyle=orthogonalEdgeStyle;rounded=0;orthogonalLoop=1;jettySize=auto;html=1;" parent="TiNF2-5zbhQ4cIO_slI2-167" source="TiNF2-5zbhQ4cIO_slI2-302" target="TiNF2-5zbhQ4cIO_slI2-307" edge="1">
          <mxGeometry relative="1" as="geometry" />
        </mxCell>
        <mxCell id="TiNF2-5zbhQ4cIO_slI2-302" value="" style="sketch=0;points=[[0,0,0],[0.25,0,0],[0.5,0,0],[0.75,0,0],[1,0,0],[0,1,0],[0.25,1,0],[0.5,1,0],[0.75,1,0],[1,1,0],[0,0.25,0],[0,0.5,0],[0,0.75,0],[1,0.25,0],[1,0.5,0],[1,0.75,0]];outlineConnect=0;fontColor=#232F3E;fillColor=#C925D1;strokeColor=#ffffff;dashed=0;verticalLabelPosition=bottom;verticalAlign=top;align=center;html=1;fontSize=12;fontStyle=0;aspect=fixed;shape=mxgraph.aws4.resourceIcon;resIcon=mxgraph.aws4.elasticache;" parent="TiNF2-5zbhQ4cIO_slI2-167" vertex="1">
          <mxGeometry x="822" y="760" width="78" height="78" as="geometry" />
        </mxCell>
        <mxCell id="TiNF2-5zbhQ4cIO_slI2-303" value="" style="sketch=0;outlineConnect=0;fontColor=#232F3E;gradientColor=none;fillColor=#C925D1;strokeColor=none;dashed=0;verticalLabelPosition=bottom;verticalAlign=top;align=center;html=1;fontSize=12;fontStyle=0;aspect=fixed;pointerEvents=1;shape=mxgraph.aws4.aurora_instance;" parent="TiNF2-5zbhQ4cIO_slI2-167" vertex="1">
          <mxGeometry x="142" y="930" width="78" height="78" as="geometry" />
        </mxCell>
        <mxCell id="TiNF2-5zbhQ4cIO_slI2-304" value="" style="endArrow=none;dashed=1;html=1;dashPattern=1 3;strokeWidth=2;rounded=0;entryX=0;entryY=0.5;entryDx=0;entryDy=0;entryPerimeter=0;" parent="TiNF2-5zbhQ4cIO_slI2-167" edge="1">
          <mxGeometry width="50" height="50" relative="1" as="geometry">
            <mxPoint x="220" y="968.5799999999999" as="sourcePoint" />
            <mxPoint x="480" y="968.5799999999999" as="targetPoint" />
          </mxGeometry>
        </mxCell>
        <mxCell id="TiNF2-5zbhQ4cIO_slI2-305" value="" style="endArrow=none;dashed=1;html=1;dashPattern=1 3;strokeWidth=2;rounded=0;entryX=0;entryY=0.5;entryDx=0;entryDy=0;entryPerimeter=0;" parent="TiNF2-5zbhQ4cIO_slI2-167" edge="1">
          <mxGeometry width="50" height="50" relative="1" as="geometry">
            <mxPoint x="560" y="968.5799999999999" as="sourcePoint" />
            <mxPoint x="820" y="968.5799999999999" as="targetPoint" />
          </mxGeometry>
        </mxCell>
        <mxCell id="TiNF2-5zbhQ4cIO_slI2-307" value="" style="sketch=0;outlineConnect=0;fontColor=#232F3E;gradientColor=none;fillColor=#C925D1;strokeColor=none;dashed=0;verticalLabelPosition=bottom;verticalAlign=top;align=center;html=1;fontSize=12;fontStyle=0;aspect=fixed;pointerEvents=1;shape=mxgraph.aws4.aurora_instance;" parent="TiNF2-5zbhQ4cIO_slI2-167" vertex="1">
          <mxGeometry x="822" y="930" width="78" height="78" as="geometry" />
        </mxCell>
        <mxCell id="TiNF2-5zbhQ4cIO_slI2-361" style="edgeStyle=orthogonalEdgeStyle;rounded=0;orthogonalLoop=1;jettySize=auto;html=1;" parent="TiNF2-5zbhQ4cIO_slI2-167" source="TiNF2-5zbhQ4cIO_slI2-312" target="TiNF2-5zbhQ4cIO_slI2-316" edge="1">
          <mxGeometry relative="1" as="geometry" />
        </mxCell>
        <mxCell id="TiNF2-5zbhQ4cIO_slI2-312" value="" style="sketch=0;points=[[0,0,0],[0.25,0,0],[0.5,0,0],[0.75,0,0],[1,0,0],[0,1,0],[0.25,1,0],[0.5,1,0],[0.75,1,0],[1,1,0],[0,0.25,0],[0,0.5,0],[0,0.75,0],[1,0.25,0],[1,0.5,0],[1,0.75,0]];outlineConnect=0;fontColor=#232F3E;fillColor=#DD344C;strokeColor=#ffffff;dashed=0;verticalLabelPosition=bottom;verticalAlign=top;align=center;html=1;fontSize=12;fontStyle=0;aspect=fixed;shape=mxgraph.aws4.resourceIcon;resIcon=mxgraph.aws4.guardduty;" parent="TiNF2-5zbhQ4cIO_slI2-167" vertex="1">
          <mxGeometry x="1124.5" y="1122" width="78" height="78" as="geometry" />
        </mxCell>
        <mxCell id="TiNF2-5zbhQ4cIO_slI2-313" value="VPC" style="points=[[0,0],[0.25,0],[0.5,0],[0.75,0],[1,0],[1,0.25],[1,0.5],[1,0.75],[1,1],[0.75,1],[0.5,1],[0.25,1],[0,1],[0,0.75],[0,0.5],[0,0.25]];outlineConnect=0;gradientColor=none;html=1;whiteSpace=wrap;fontSize=12;fontStyle=0;container=1;pointerEvents=0;collapsible=0;recursiveResize=0;shape=mxgraph.aws4.group;grIcon=mxgraph.aws4.group_vpc2;strokeColor=#8C4FFF;fillColor=none;verticalAlign=top;align=left;spacingLeft=30;fontColor=#AAB7B8;dashed=0;" parent="TiNF2-5zbhQ4cIO_slI2-167" vertex="1">
          <mxGeometry x="20" y="340" width="1010" height="1040" as="geometry" />
        </mxCell>
        <mxCell id="TiNF2-5zbhQ4cIO_slI2-324" value="ALB" style="text;html=1;align=center;verticalAlign=middle;whiteSpace=wrap;rounded=0;" parent="TiNF2-5zbhQ4cIO_slI2-313" vertex="1">
          <mxGeometry x="544.2" y="130" width="60" height="30" as="geometry" />
        </mxCell>
        <mxCell id="TiNF2-5zbhQ4cIO_slI2-332" value="ElastiCache&lt;div&gt;(Read Replica)&lt;/div&gt;" style="text;html=1;align=center;verticalAlign=middle;whiteSpace=wrap;rounded=0;" parent="TiNF2-5zbhQ4cIO_slI2-313" vertex="1">
          <mxGeometry x="870" y="490" width="100" height="30" as="geometry" />
        </mxCell>
        <mxCell id="TiNF2-5zbhQ4cIO_slI2-340" value="Aurora&lt;div&gt;(Read Replica)&lt;/div&gt;" style="text;html=1;align=center;verticalAlign=middle;whiteSpace=wrap;rounded=0;" parent="TiNF2-5zbhQ4cIO_slI2-313" vertex="1">
          <mxGeometry x="175" y="660" width="100" height="30" as="geometry" />
        </mxCell>
        <mxCell id="TiNF2-5zbhQ4cIO_slI2-342" value="Aurora&lt;div&gt;(Read Replica)&lt;/div&gt;" style="text;html=1;align=center;verticalAlign=middle;whiteSpace=wrap;rounded=0;" parent="TiNF2-5zbhQ4cIO_slI2-313" vertex="1">
          <mxGeometry x="859" y="660" width="100" height="30" as="geometry" />
        </mxCell>
        <mxCell id="TiNF2-5zbhQ4cIO_slI2-366" value="Read" style="text;html=1;align=center;verticalAlign=middle;whiteSpace=wrap;rounded=0;" parent="TiNF2-5zbhQ4cIO_slI2-313" vertex="1">
          <mxGeometry x="840" y="550" width="60" height="30" as="geometry" />
        </mxCell>
        <mxCell id="TiNF2-5zbhQ4cIO_slI2-343" value="Availability Zone 2" style="text;html=1;align=center;verticalAlign=middle;whiteSpace=wrap;rounded=0;" parent="TiNF2-5zbhQ4cIO_slI2-313" vertex="1">
          <mxGeometry x="449.00000000000006" y="730" width="100" height="30" as="geometry" />
        </mxCell>
        <mxCell id="TiNF2-5zbhQ4cIO_slI2-311" value="" style="fillColor=none;strokeColor=#FF0000;dashed=1;verticalAlign=top;fontStyle=0;fontColor=#5A6C86;whiteSpace=wrap;html=1;" parent="TiNF2-5zbhQ4cIO_slI2-313" vertex="1">
          <mxGeometry x="30" y="224" width="929" height="130" as="geometry" />
        </mxCell>
        <mxCell id="U_ha7sHfOQzhkPzP0HIx-4" value="ECS" style="text;html=1;align=center;verticalAlign=middle;whiteSpace=wrap;rounded=0;" vertex="1" parent="TiNF2-5zbhQ4cIO_slI2-313">
          <mxGeometry x="10" y="320" width="120" height="30" as="geometry" />
        </mxCell>
        <mxCell id="U_ha7sHfOQzhkPzP0HIx-3" value="" style="sketch=0;points=[[0,0,0],[0.25,0,0],[0.5,0,0],[0.75,0,0],[1,0,0],[0,1,0],[0.25,1,0],[0.5,1,0],[0.75,1,0],[1,1,0],[0,0.25,0],[0,0.5,0],[0,0.75,0],[1,0.25,0],[1,0.5,0],[1,0.75,0]];outlineConnect=0;fontColor=#232F3E;fillColor=#ED7100;strokeColor=#ffffff;dashed=0;verticalLabelPosition=bottom;verticalAlign=top;align=center;html=1;fontSize=12;fontStyle=0;aspect=fixed;shape=mxgraph.aws4.resourceIcon;resIcon=mxgraph.aws4.ecs;" vertex="1" parent="TiNF2-5zbhQ4cIO_slI2-313">
          <mxGeometry x="31" y="250" width="78" height="78" as="geometry" />
        </mxCell>
        <mxCell id="U_ha7sHfOQzhkPzP0HIx-89" value="ECS" style="text;html=1;align=center;verticalAlign=middle;whiteSpace=wrap;rounded=0;" vertex="1" parent="TiNF2-5zbhQ4cIO_slI2-313">
          <mxGeometry x="340" y="320" width="120" height="30" as="geometry" />
        </mxCell>
        <mxCell id="U_ha7sHfOQzhkPzP0HIx-90" value="" style="sketch=0;points=[[0,0,0],[0.25,0,0],[0.5,0,0],[0.75,0,0],[1,0,0],[0,1,0],[0.25,1,0],[0.5,1,0],[0.75,1,0],[1,1,0],[0,0.25,0],[0,0.5,0],[0,0.75,0],[1,0.25,0],[1,0.5,0],[1,0.75,0]];outlineConnect=0;fontColor=#232F3E;fillColor=#ED7100;strokeColor=#ffffff;dashed=0;verticalLabelPosition=bottom;verticalAlign=top;align=center;html=1;fontSize=12;fontStyle=0;aspect=fixed;shape=mxgraph.aws4.resourceIcon;resIcon=mxgraph.aws4.ecs;" vertex="1" parent="TiNF2-5zbhQ4cIO_slI2-313">
          <mxGeometry x="361" y="250" width="78" height="78" as="geometry" />
        </mxCell>
        <mxCell id="U_ha7sHfOQzhkPzP0HIx-91" value="ECS" style="text;html=1;align=center;verticalAlign=middle;whiteSpace=wrap;rounded=0;" vertex="1" parent="TiNF2-5zbhQ4cIO_slI2-313">
          <mxGeometry x="690" y="320" width="120" height="30" as="geometry" />
        </mxCell>
        <mxCell id="TiNF2-5zbhQ4cIO_slI2-296" value="" style="sketch=0;points=[[0,0,0],[0.25,0,0],[0.5,0,0],[0.75,0,0],[1,0,0],[0,1,0],[0.25,1,0],[0.5,1,0],[0.75,1,0],[1,1,0],[0,0.25,0],[0,0.5,0],[0,0.75,0],[1,0.25,0],[1,0.5,0],[1,0.75,0]];outlineConnect=0;fontColor=#232F3E;fillColor=#ED7100;strokeColor=#ffffff;dashed=0;verticalLabelPosition=bottom;verticalAlign=top;align=center;html=1;fontSize=12;fontStyle=0;aspect=fixed;shape=mxgraph.aws4.resourceIcon;resIcon=mxgraph.aws4.fargate;" parent="TiNF2-5zbhQ4cIO_slI2-313" vertex="1">
          <mxGeometry x="122" y="250" width="78" height="78" as="geometry" />
        </mxCell>
        <mxCell id="U_ha7sHfOQzhkPzP0HIx-93" value="" style="endArrow=none;html=1;rounded=0;entryX=0;entryY=0.5;entryDx=0;entryDy=0;entryPerimeter=0;" edge="1" parent="TiNF2-5zbhQ4cIO_slI2-313" source="U_ha7sHfOQzhkPzP0HIx-3" target="TiNF2-5zbhQ4cIO_slI2-296">
          <mxGeometry width="50" height="50" relative="1" as="geometry">
            <mxPoint x="99" y="419" as="sourcePoint" />
            <mxPoint x="110" y="420" as="targetPoint" />
          </mxGeometry>
        </mxCell>
        <mxCell id="TiNF2-5zbhQ4cIO_slI2-328" value="Fargate" style="text;html=1;align=center;verticalAlign=middle;whiteSpace=wrap;rounded=0;" parent="TiNF2-5zbhQ4cIO_slI2-313" vertex="1">
          <mxGeometry x="130" y="320" width="120" height="30" as="geometry" />
        </mxCell>
        <mxCell id="TiNF2-5zbhQ4cIO_slI2-329" value="Fargate" style="text;html=1;align=center;verticalAlign=middle;whiteSpace=wrap;rounded=0;" parent="TiNF2-5zbhQ4cIO_slI2-313" vertex="1">
          <mxGeometry x="470.00000000000006" y="320" width="120" height="30" as="geometry" />
        </mxCell>
        <mxCell id="TiNF2-5zbhQ4cIO_slI2-330" value="Fargate" style="text;html=1;align=center;verticalAlign=middle;whiteSpace=wrap;rounded=0;" parent="TiNF2-5zbhQ4cIO_slI2-313" vertex="1">
          <mxGeometry x="810" y="320" width="120" height="30" as="geometry" />
        </mxCell>
        <mxCell id="TiNF2-5zbhQ4cIO_slI2-315" value="Availability Zone 1" style="text;html=1;align=center;verticalAlign=middle;whiteSpace=wrap;rounded=0;" parent="TiNF2-5zbhQ4cIO_slI2-167" vertex="1">
          <mxGeometry x="131" y="1070" width="100" height="30" as="geometry" />
        </mxCell>
        <mxCell id="TiNF2-5zbhQ4cIO_slI2-358" style="edgeStyle=orthogonalEdgeStyle;rounded=0;orthogonalLoop=1;jettySize=auto;html=1;" parent="TiNF2-5zbhQ4cIO_slI2-167" source="TiNF2-5zbhQ4cIO_slI2-316" target="TiNF2-5zbhQ4cIO_slI2-230" edge="1">
          <mxGeometry relative="1" as="geometry" />
        </mxCell>
        <mxCell id="TiNF2-5zbhQ4cIO_slI2-316" value="" style="sketch=0;points=[[0,0,0],[0.25,0,0],[0.5,0,0],[0.75,0,0],[1,0,0],[0,1,0],[0.25,1,0],[0.5,1,0],[0.75,1,0],[1,1,0],[0,0.25,0],[0,0.5,0],[0,0.75,0],[1,0.25,0],[1,0.5,0],[1,0.75,0]];outlineConnect=0;fontColor=#232F3E;fillColor=#E7157B;strokeColor=#ffffff;dashed=0;verticalLabelPosition=bottom;verticalAlign=top;align=center;html=1;fontSize=12;fontStyle=0;aspect=fixed;shape=mxgraph.aws4.resourceIcon;resIcon=mxgraph.aws4.eventbridge;" parent="TiNF2-5zbhQ4cIO_slI2-167" vertex="1">
          <mxGeometry x="1124.5" y="1000" width="78" height="78" as="geometry" />
        </mxCell>
        <mxCell id="TiNF2-5zbhQ4cIO_slI2-333" value="ElastiCache&lt;div&gt;(Read Replica)&lt;/div&gt;" style="text;html=1;align=center;verticalAlign=middle;whiteSpace=wrap;rounded=0;" parent="TiNF2-5zbhQ4cIO_slI2-167" vertex="1">
          <mxGeometry x="210" y="835" width="100" height="30" as="geometry" />
        </mxCell>
        <mxCell id="TiNF2-5zbhQ4cIO_slI2-335" style="edgeStyle=orthogonalEdgeStyle;rounded=0;orthogonalLoop=1;jettySize=auto;html=1;entryX=0.5;entryY=0;entryDx=0;entryDy=0;entryPerimeter=0;" parent="TiNF2-5zbhQ4cIO_slI2-167" source="TiNF2-5zbhQ4cIO_slI2-297" target="TiNF2-5zbhQ4cIO_slI2-302" edge="1">
          <mxGeometry relative="1" as="geometry" />
        </mxCell>
        <mxCell id="TiNF2-5zbhQ4cIO_slI2-339" value="Aurora&lt;div&gt;(Primary)&lt;/div&gt;" style="text;html=1;align=center;verticalAlign=middle;whiteSpace=wrap;rounded=0;" parent="TiNF2-5zbhQ4cIO_slI2-167" vertex="1">
          <mxGeometry x="538" y="1000" width="100" height="30" as="geometry" />
        </mxCell>
        <mxCell id="TiNF2-5zbhQ4cIO_slI2-344" value="Availability Zone 3" style="text;html=1;align=center;verticalAlign=middle;whiteSpace=wrap;rounded=0;" parent="TiNF2-5zbhQ4cIO_slI2-167" vertex="1">
          <mxGeometry x="811" y="1070" width="100" height="30" as="geometry" />
        </mxCell>
        <mxCell id="TiNF2-5zbhQ4cIO_slI2-362" value="GuardDuty" style="text;html=1;align=center;verticalAlign=middle;whiteSpace=wrap;rounded=0;" parent="TiNF2-5zbhQ4cIO_slI2-167" vertex="1">
          <mxGeometry x="1220" y="1161" width="60" height="30" as="geometry" />
        </mxCell>
        <mxCell id="TiNF2-5zbhQ4cIO_slI2-363" value="EventBridge" style="text;html=1;align=center;verticalAlign=middle;whiteSpace=wrap;rounded=0;" parent="TiNF2-5zbhQ4cIO_slI2-167" vertex="1">
          <mxGeometry x="1220" y="1040" width="60" height="30" as="geometry" />
        </mxCell>
        <mxCell id="TiNF2-5zbhQ4cIO_slI2-364" value="Read/Write" style="text;html=1;align=center;verticalAlign=middle;whiteSpace=wrap;rounded=0;" parent="TiNF2-5zbhQ4cIO_slI2-167" vertex="1">
          <mxGeometry x="530" y="710" width="60" height="30" as="geometry" />
        </mxCell>
        <mxCell id="TiNF2-5zbhQ4cIO_slI2-367" value="Read" style="text;html=1;align=center;verticalAlign=middle;whiteSpace=wrap;rounded=0;" parent="TiNF2-5zbhQ4cIO_slI2-167" vertex="1">
          <mxGeometry x="858" y="710" width="60" height="30" as="geometry" />
        </mxCell>
        <mxCell id="TiNF2-5zbhQ4cIO_slI2-368" value="Read" style="text;html=1;align=center;verticalAlign=middle;whiteSpace=wrap;rounded=0;" parent="TiNF2-5zbhQ4cIO_slI2-167" vertex="1">
          <mxGeometry x="171" y="710" width="60" height="30" as="geometry" />
        </mxCell>
        <mxCell id="TiNF2-5zbhQ4cIO_slI2-371" value="" style="endArrow=none;html=1;rounded=0;exitX=0;exitY=0.5;exitDx=0;exitDy=0;exitPerimeter=0;entryX=0.691;entryY=0.443;entryDx=0;entryDy=0;entryPerimeter=0;" parent="TiNF2-5zbhQ4cIO_slI2-167" source="TiNF2-5zbhQ4cIO_slI2-318" target="TiNF2-5zbhQ4cIO_slI2-186" edge="1">
          <mxGeometry width="50" height="50" relative="1" as="geometry">
            <mxPoint x="730" y="400" as="sourcePoint" />
            <mxPoint x="780" y="350" as="targetPoint" />
          </mxGeometry>
        </mxCell>
        <mxCell id="TiNF2-5zbhQ4cIO_slI2-318" value="" style="sketch=0;points=[[0,0,0],[0.25,0,0],[0.5,0,0],[0.75,0,0],[1,0,0],[0,1,0],[0.25,1,0],[0.5,1,0],[0.75,1,0],[1,1,0],[0,0.25,0],[0,0.5,0],[0,0.75,0],[1,0.25,0],[1,0.5,0],[1,0.75,0]];outlineConnect=0;fontColor=#232F3E;fillColor=#DD344C;strokeColor=#ffffff;dashed=0;verticalLabelPosition=bottom;verticalAlign=top;align=center;html=1;fontSize=12;fontStyle=0;aspect=fixed;shape=mxgraph.aws4.resourceIcon;resIcon=mxgraph.aws4.cognito;" parent="TiNF2-5zbhQ4cIO_slI2-167" vertex="1">
          <mxGeometry x="1129" y="400" width="78" height="78" as="geometry" />
        </mxCell>
        <mxCell id="TiNF2-5zbhQ4cIO_slI2-345" style="edgeStyle=orthogonalEdgeStyle;rounded=0;orthogonalLoop=1;jettySize=auto;html=1;exitX=0.5;exitY=1;exitDx=0;exitDy=0;exitPerimeter=0;" parent="TiNF2-5zbhQ4cIO_slI2-167" source="TiNF2-5zbhQ4cIO_slI2-318" target="TiNF2-5zbhQ4cIO_slI2-318" edge="1">
          <mxGeometry relative="1" as="geometry" />
        </mxCell>
        <mxCell id="TiNF2-5zbhQ4cIO_slI2-356" value="Amazon Cognito (third-party sign-in)" style="text;html=1;align=center;verticalAlign=middle;whiteSpace=wrap;rounded=0;" parent="TiNF2-5zbhQ4cIO_slI2-167" vertex="1">
          <mxGeometry x="1207" y="424" width="110" height="30" as="geometry" />
        </mxCell>
        <mxCell id="TiNF2-5zbhQ4cIO_slI2-327" value="Auto Scaling Policy" style="text;html=1;align=center;verticalAlign=middle;whiteSpace=wrap;rounded=0;" parent="TiNF2-5zbhQ4cIO_slI2-167" vertex="1">
          <mxGeometry x="990" y="590" width="120" height="30" as="geometry" />
        </mxCell>
        <mxCell id="TiNF2-5zbhQ4cIO_slI2-331" value="ElastiCache&lt;div&gt;(Primary)&lt;/div&gt;" style="text;html=1;align=center;verticalAlign=middle;whiteSpace=wrap;rounded=0;" parent="TiNF2-5zbhQ4cIO_slI2-167" vertex="1">
          <mxGeometry x="548.4" y="835" width="100" height="30" as="geometry" />
        </mxCell>
        <mxCell id="TiNF2-5zbhQ4cIO_slI2-365" value="Read/Write" style="text;html=1;align=center;verticalAlign=middle;whiteSpace=wrap;rounded=0;" parent="TiNF2-5zbhQ4cIO_slI2-167" vertex="1">
          <mxGeometry x="524.2" y="890" width="60" height="30" as="geometry" />
        </mxCell>
        <mxCell id="TiNF2-5zbhQ4cIO_slI2-369" value="Read" style="text;html=1;align=center;verticalAlign=middle;whiteSpace=wrap;rounded=0;" parent="TiNF2-5zbhQ4cIO_slI2-167" vertex="1">
          <mxGeometry x="171" y="890" width="60" height="30" as="geometry" />
        </mxCell>
        <mxCell id="U_ha7sHfOQzhkPzP0HIx-96" value="" style="endArrow=none;html=1;rounded=0;" edge="1" parent="TiNF2-5zbhQ4cIO_slI2-167">
          <mxGeometry width="50" height="50" relative="1" as="geometry">
            <mxPoint x="460" y="628.88" as="sourcePoint" />
            <mxPoint x="480" y="628.88" as="targetPoint" />
          </mxGeometry>
        </mxCell>
        <mxCell id="U_ha7sHfOQzhkPzP0HIx-92" value="" style="sketch=0;points=[[0,0,0],[0.25,0,0],[0.5,0,0],[0.75,0,0],[1,0,0],[0,1,0],[0.25,1,0],[0.5,1,0],[0.75,1,0],[1,1,0],[0,0.25,0],[0,0.5,0],[0,0.75,0],[1,0.25,0],[1,0.5,0],[1,0.75,0]];outlineConnect=0;fontColor=#232F3E;fillColor=#ED7100;strokeColor=#ffffff;dashed=0;verticalLabelPosition=bottom;verticalAlign=top;align=center;html=1;fontSize=12;fontStyle=0;aspect=fixed;shape=mxgraph.aws4.resourceIcon;resIcon=mxgraph.aws4.ecs;" vertex="1" parent="TiNF2-5zbhQ4cIO_slI2-167">
          <mxGeometry x="731" y="585.5" width="78" height="78" as="geometry" />
        </mxCell>
        <mxCell id="U_ha7sHfOQzhkPzP0HIx-99" value="" style="endArrow=none;html=1;rounded=0;" edge="1" parent="TiNF2-5zbhQ4cIO_slI2-167" source="U_ha7sHfOQzhkPzP0HIx-92" target="TiNF2-5zbhQ4cIO_slI2-297">
          <mxGeometry width="50" height="50" relative="1" as="geometry">
            <mxPoint x="800" y="628.8" as="sourcePoint" />
            <mxPoint x="820" y="628.8" as="targetPoint" />
          </mxGeometry>
        </mxCell>
        <mxCell id="TiNF2-5zbhQ4cIO_slI2-382" value="" style="endArrow=none;html=1;rounded=0;" parent="TiNF2-5zbhQ4cIO_slI2-167" target="TiNF2-5zbhQ4cIO_slI2-312" edge="1" source="TiNF2-5zbhQ4cIO_slI2-313">
          <mxGeometry width="50" height="50" relative="1" as="geometry">
            <mxPoint x="1010" y="1150" as="sourcePoint" />
            <mxPoint x="810" y="1100" as="targetPoint" />
          </mxGeometry>
        </mxCell>
        <mxCell id="U_ha7sHfOQzhkPzP0HIx-101" value="" style="endArrow=classic;html=1;rounded=0;" edge="1" parent="TiNF2-5zbhQ4cIO_slI2-167" target="TiNF2-5zbhQ4cIO_slI2-296">
          <mxGeometry width="50" height="50" relative="1" as="geometry">
            <mxPoint x="520" y="510" as="sourcePoint" />
            <mxPoint x="610" y="600" as="targetPoint" />
            <Array as="points">
              <mxPoint x="181" y="510" />
            </Array>
          </mxGeometry>
        </mxCell>
        <mxCell id="TiNF2-5zbhQ4cIO_slI2-372" value="" style="sketch=0;outlineConnect=0;fontColor=#232F3E;gradientColor=none;fillColor=#232F3D;strokeColor=none;dashed=0;verticalLabelPosition=bottom;verticalAlign=top;align=center;html=1;fontSize=12;fontStyle=0;aspect=fixed;pointerEvents=1;shape=mxgraph.aws4.users;" parent="1" vertex="1">
          <mxGeometry x="791" y="-120" width="78" height="78" as="geometry" />
        </mxCell>
        <mxCell id="TiNF2-5zbhQ4cIO_slI2-373" value="" style="endArrow=none;html=1;rounded=0;exitX=0.5;exitY=0;exitDx=0;exitDy=0;exitPerimeter=0;" parent="1" source="TiNF2-5zbhQ4cIO_slI2-318" edge="1">
          <mxGeometry width="50" height="50" relative="1" as="geometry">
            <mxPoint x="1020" y="250" as="sourcePoint" />
            <mxPoint x="1480" y="-70" as="targetPoint" />
          </mxGeometry>
        </mxCell>
        <mxCell id="TiNF2-5zbhQ4cIO_slI2-374" value="" style="endArrow=none;html=1;rounded=0;" parent="1" edge="1">
          <mxGeometry width="50" height="50" relative="1" as="geometry">
            <mxPoint x="850" y="-70" as="sourcePoint" />
            <mxPoint x="1480" y="-70" as="targetPoint" />
          </mxGeometry>
        </mxCell>
        <mxCell id="TiNF2-5zbhQ4cIO_slI2-375" value="" style="endArrow=none;html=1;rounded=0;exitX=0.5;exitY=0;exitDx=0;exitDy=0;exitPerimeter=0;" parent="1" source="TiNF2-5zbhQ4cIO_slI2-182" target="TiNF2-5zbhQ4cIO_slI2-372" edge="1">
          <mxGeometry width="50" height="50" relative="1" as="geometry">
            <mxPoint x="1020" y="250" as="sourcePoint" />
            <mxPoint x="820" y="-40" as="targetPoint" />
          </mxGeometry>
        </mxCell>
        <mxCell id="TiNF2-5zbhQ4cIO_slI2-383" value="Users" style="text;html=1;align=center;verticalAlign=middle;whiteSpace=wrap;rounded=0;" parent="1" vertex="1">
          <mxGeometry x="820" y="-60" width="100" height="30" as="geometry" />
        </mxCell>
        <mxCell id="U_ha7sHfOQzhkPzP0HIx-100" value="" style="endArrow=classic;html=1;rounded=0;entryX=0.872;entryY=0.123;entryDx=0;entryDy=0;entryPerimeter=0;" edge="1" parent="1" target="TiNF2-5zbhQ4cIO_slI2-311">
          <mxGeometry width="50" height="50" relative="1" as="geometry">
            <mxPoint x="830" y="600" as="sourcePoint" />
            <mxPoint x="920" y="690" as="targetPoint" />
            <Array as="points">
              <mxPoint x="1170" y="600" />
            </Array>
          </mxGeometry>
        </mxCell>
      </root>
    </mxGraphModel>
  </diagram>
</mxfile>
